Coordinates
version=1
nRows=29
nColumns=24
inDegrees=yes

Units are S.I. units (second, meters, Newtons, ...)
Angles are in degrees.

endheader
time	pelvis_tilt	pelvis_list	pelvis_rotation	pelvis_tx	pelvis_ty	pelvis_tz	hip_flexion_r	hip_adduction_r	hip_rotation_r	knee_angle_r	ankle_angle_r	subtalar_angle_r	mtp_angle_r	hip_flexion_l	hip_adduction_l	hip_rotation_l	knee_angle_l	ankle_angle_l	subtalar_angle_l	mtp_angle_l	lumbar_extension	lumbar_bending	lumbar_rotation
      4.41500000	      5.04845103	     11.37322745	    -11.17255772	      0.76390419	      0.96679380	      0.03548672	     -4.67781821	    -15.11268005	     -0.41283888	    -42.95545815	      1.15748605	     -3.82653678	     33.78943907	     19.34847767	     10.47019127	    -19.23320558	    -13.26009271	     -6.19340499	     -3.60036963	     49.29442228	    -21.48835920	    -16.82678352	      7.46324904
      4.42000000	      5.10611275	     11.55668896	    -10.98222871	      0.76992835	      0.96723109	      0.03479438	     -4.00470499	    -15.34372850	     -0.15211851	    -44.43662640	      0.09616364	     -4.04793057	     34.57824405	     19.28028236	     10.74989553	    -19.04353882	    -13.85304880	     -5.87725305	     -3.65068223	     48.57255136	    -21.53616951	    -16.97468321	      7.14323112
      4.42500000	      5.29684315	     11.69250791	    -10.79437796	      0.77596632	      0.96790643	      0.03409036	     -3.50768394	    -15.53735176	      0.07885753	    -45.83064695	     -0.84758409	     -4.26097673	     34.54654546	     19.00204733	     11.03490901	    -18.85485035	    -14.32820263	     -5.64206552	     -3.80413436	     48.45764664	    -21.73763614	    -17.08066416	      6.83500981
      4.43000000	      5.26767745	     11.78841548	    -10.56555823	      0.78175372	      0.96823622	      0.03327736	     -2.71525709	    -15.63352717	      0.36076279	    -47.27415803	     -1.65674975	     -4.38489258	     34.58074491	     18.98039258	     11.23256523	    -18.67513846	    -14.85964870	     -5.30761314	     -3.94102210	     48.04803437	    -21.72031873	    -17.09583871	      6.55785196
      4.43500000	      5.37334097	     11.94300659	    -10.34470330	      0.78766402	      0.96876544	      0.03244890	     -2.09458385	    -15.82939998	      0.56572757	    -48.62730868	     -2.27940004	     -4.47758055	     34.52793970	     18.73720970	     11.54316966	    -18.51561318	    -15.22369028	     -5.01022301	     -3.92837076	     47.79731500	    -21.83661856	    -17.18311543	      6.21946573
      4.44000000	      5.34051433	     12.03146222	    -10.14300506	      0.79332342	      0.96908194	      0.03159022	     -1.26826027	    -15.91745006	      0.85971836	    -49.99916455	     -2.71759816	     -4.43421841	     34.29193218	     18.65645120	     11.74483127	    -18.40944694	    -15.64309198	     -4.52395455	     -3.84039432	     46.58740200	    -21.80934059	    -17.18336733	      6.00966176
      4.44500000	      5.50650777	     12.09853767	     -9.91002665	      0.79912571	      0.96977764	      0.03067813	     -0.75015603	    -16.02247272	      1.02521143	    -51.19682021	     -3.10621611	     -4.43140244	     34.24663906	     18.26411260	     12.00745399	    -18.24319716	    -15.88393353	     -4.19013466	     -3.83777819	     46.58874132	    -22.00918732	    -17.15985467	      5.69168099
      4.45000000	      5.29996498	     12.18451149	     -9.63812151	      0.80455904	      0.96985569	      0.02969942	      0.28702052	    -16.06204377	      1.27932663	    -52.51912743	     -3.24761865	     -4.40847063	     34.03532790	     18.33930007	     12.19605593	    -18.07852609	    -16.23145518	     -3.84129872	     -3.82611250	     46.19019449	    -21.81296340	    -17.11013990	      5.43999988
      4.45500000	      5.20634133	     12.25340957	     -9.41899765	      0.81000285	      0.97014128	      0.02874576	      1.18905348	    -16.10850064	      1.53136964	    -53.73888381	     -3.24682615	     -4.36317391	     33.70733883	     18.23811093	     12.39851395	    -17.92938973	    -16.47814436	     -3.43012943	     -3.76326187	     45.54455153	    -21.72695567	    -17.06192620	      5.25139792
      4.46000000	      5.21134400	     12.33739124	     -9.18140236	      0.81550830	      0.97063833	      0.02779769	      1.93720481	    -16.19169269	      1.70626715	    -54.83862717	     -3.15789670	     -4.31694381	     33.58315495	     17.97307795	     12.65237401	    -17.77026739	    -16.61178712	     -3.13253995	     -3.65951001	     45.28009994	    -21.75403937	    -17.02946553	      4.92595228
      4.46500000	      5.05543207	     12.40229951	     -8.95532460	      0.82077011	      0.97086499	      0.02679685	      2.92560558	    -16.22562666	      1.93066637	    -55.96246764	     -2.92987141	     -4.24261242	     33.41330889	     17.92522525	     12.84414100	    -17.62203269	    -16.82480269	     -2.76129564	     -3.62873072	     44.83342798	    -21.60728648	    -16.95909991	      4.73934431
      4.47000000	      4.88429228	     12.44776424	     -8.76106182	      0.82593648	      0.97110809	      0.02586903	      3.94620628	    -16.21864258	      2.19658745	    -57.02571310	     -2.64293772	     -4.20814661	     33.19934760	     17.87730618	     13.00668903	    -17.46780721	    -17.00205310	     -2.39466555	     -3.59258797	     44.22676334	    -21.44205274	    -16.88069390	      4.57667216
      4.47500000	      4.79113470	     12.45509543	     -8.59381793	      0.83108499	      0.97152024	      0.02497651	      4.86179797	    -16.17697783	      2.44562399	    -57.99097681	     -2.25757480	     -4.19788661	     32.48380102	     17.72478427	     13.14388151	    -17.30656511	    -17.17263267	     -1.85341251	     -3.38815384	     42.44016944	    -21.35787054	    -16.76992449	      4.44771344
      4.48000000	      4.63610506	     12.51041991	     -8.40789502	      0.83619095	      0.97183582	      0.02405461	      5.85603859	    -16.18864237	      2.66651601	    -58.90818536	     -1.80464594	     -4.14874621	     32.51143386	     17.63554183	     13.32451133	    -17.12580006	    -17.29268840	     -1.56669877	     -3.38885069	     42.30761300	    -21.20569877	    -16.69907239	      4.26493634
      4.48500000	      4.39345108	     12.51969254	     -8.28584117	      0.84107502	      0.97203051	      0.02324260	      7.00418700	    -16.10316392	      2.98414130	    -59.80384062	     -1.36683129	     -4.22762641	     32.44238489	     17.68048125	     13.41234121	    -16.99714644	    -17.48394349	     -1.21698282	     -3.45640915	     41.83714258	    -20.95192264	    -16.59585342	      4.23240218
      4.49000000	      4.17442498	     12.55936341	     -8.15444256	      0.84598762	      0.97226370	      0.02240581	      8.11314062	    -16.06802571	      3.25292203	    -60.62238045	     -0.83773648	     -4.24118401	     32.37817146	     17.68576446	     13.54439513	    -16.83066568	    -17.64064900	     -0.87466077	     -3.44518074	     41.22906293	    -20.72228964	    -16.52011935	      4.16032054
      4.49500000	      3.96441855	     12.59825623	     -8.04180592	      0.85088515	      0.97255662	      0.02165062	      9.20728926	    -16.02264563	      3.51873335	    -61.35805985	     -0.29573160	     -4.30104172	     32.31619380	     17.67749947	     13.66700179	    -16.68485899	    -17.79648321	     -0.53266087	     -3.41485725	     40.56045928	    -20.49458551	    -16.45448087	      4.09729319
      4.50000000	      3.82366115	     12.63396553	     -7.93250767	      0.85580780	      0.97298646	      0.02094958	     10.19962521	    -15.98320744	      3.74053218	    -61.99617601	      0.27079106	     -4.40797170	     32.06880035	     17.57592683	     13.79780971	    -16.51871674	    -17.93684658	     -0.07409629	     -3.18145456	     38.82715884	    -20.34350284	    -16.39390466	      4.00878166
      4.50500000	      3.64699856	     12.68110338	     -7.85735223	      0.86069687	      0.97336726	      0.02030629	     11.25147937	    -15.94300881	      3.99836560	    -62.57801970	      0.83939554	     -4.45443415	     32.13107574	     17.51322475	     13.92550106	    -16.38830734	    -18.04320770	      0.19028260	     -3.21497538	     38.64571133	    -20.13883243	    -16.35329510	      3.95338545
      4.51000000	      3.45869927	     12.72717367	     -7.78923091	      0.86551096	      0.97373580	      0.01972129	     12.32423092	    -15.89112639	      4.24301390	    -63.10281191	      1.38181252	     -4.57412516	     32.17267837	     17.48160543	     14.03697401	    -16.27639407	    -18.18392197	      0.45717452	     -3.20331227	     38.29925439	    -19.92577744	    -16.31772866	      3.92529785
      4.51500000	      3.31644237	     12.73393727	     -7.72776368	      0.87035613	      0.97422464	      0.01922725	     13.30973405	    -15.78698573	      4.46185550	    -63.52218241	      1.90368547	     -4.77837090	     32.10077533	     17.36908194	     14.11533681	    -16.14894474	    -18.30375203	      0.88536128	     -3.02292271	     36.59368864	    -19.76159762	    -16.25024507	      3.90021126
      4.52000000	      3.24194645	     12.76536603	     -7.68687038	      0.87526111	      0.97482404	      0.01879204	     14.20939384	    -15.73190916	      4.66173827	    -63.85808689	      2.47276117	     -4.77564928	     32.17537862	     17.16410870	     14.22385422	    -16.06216069	    -18.36374825	      1.13911508	     -2.93416434	     36.45686206	    -19.66060873	    -16.22196413	      3.87043555
      4.52500000	      3.10991145	     12.77840790	     -7.63506036	      0.88011121	      0.97535002	      0.01839829	     15.16725448	    -15.63354277	      4.83486039	    -64.13421990	      2.94857198	     -4.99769594	     32.15401920	     17.02204232	     14.30517136	    -15.94272694	    -18.44477095	      1.49976362	     -2.80343498	     35.09614045	    -19.50316077	    -16.17169881	      3.85754266
      4.53000000	      3.17526484	     12.76558403	     -7.59294590	      0.88511022	      0.97623420	      0.01806511	     15.83846464	    -15.55615728	      4.92438923	    -64.26914837	      3.45789056	     -5.13337200	     32.20664884	     16.60774575	     14.39843393	    -15.83778754	    -18.42614982	      1.70945486	     -2.75765030	     35.07679411	    -19.55644675	    -16.10955357	      3.81526578
      4.53500000	      2.99830379	     12.81055878	     -7.59860240	      0.88997215	      0.97667479	      0.01787090	     16.86572532	    -15.45730952	      5.15566399	    -64.43910998	      3.91368497	     -5.16862215	     32.21954350	     16.49428955	     14.47334945	    -15.86477451	    -18.44714231	      2.02667469	     -2.55505427	     34.30308367	    -19.32100467	    -16.11766840	      3.83207126
      4.54000000	      3.04623434	     12.81515136	     -7.56601046	      0.89494343	      0.97751725	      0.01768258	     17.55207140	    -15.37998098	      5.23985343	    -64.46416561	      4.39272664	     -5.21751851	     32.15409292	     16.08976053	     14.56185993	    -15.79515781	    -18.42798866	      2.39400389	     -2.18933700	     32.93085830	    -19.35314429	    -16.08901880	      3.77519468
      4.54500000	      3.11091811	     12.80648340	     -7.50318929	      0.90002344	      0.97844087	      0.01746277	     18.16474585	    -15.30726954	      5.24609356	    -64.38097150	      4.79725826	     -5.35645264	     32.18296895	     15.61994045	     14.66218957	    -15.67715212	    -18.31992715	      2.53625295	     -2.12180097	     32.90211468	    -19.40166679	    -16.03725282	      3.71104685
      4.55000000	      3.20795391	     12.82069161	     -7.45176871	      0.90513874	      0.97939956	      0.01733845	     18.73185673	    -15.25920128	      5.26194654	    -64.23693785	      5.21270066	     -5.32550831	     32.17204779	     15.09546156	     14.77274088	    -15.64257204	    -18.18181658	      2.76118454	     -1.79250757	     32.59741574	    -19.47908562	    -16.02040542	      3.57905356
      4.55500000	      3.35192271	     12.77521589	     -7.41417112	      0.91024662	      0.98044982	      0.01725216	     19.20634249	    -15.14289057	      5.24111796	    -63.99797654	      5.59122523	     -5.42367556	     31.76276030	     14.50738464	     14.83638673	    -15.52465814	    -18.05431134	      3.15682979	     -1.44711658	     30.70496158	    -19.61118343	    -15.94978178	      3.53992340
